<svg xmlns="http://www.w3.org/2000/svg" viewBox="0 0 117.51 129.48">
  <defs>
    <style>
      .cls-1,.cls-3{fill:#bbb}.cls-1,.cls-2{stroke:#000;stroke-miterlimit:10}.cls-2{fill:#404040}.cls-4{fill:#990100}
    </style>
  </defs>
  <path d="M33.18 59s5.24-4.49 6.21-5 3.91 1 2.61 5c0 0 21.91 1.4 23.86-8.14s-18-16.7-18-16.7l-13-3.84-8-2.38s6.55 3.49 0 9.15M60.82 66.11s39.55 30.09 45.41 62.41c0 0 7.85-6.87 10.78-23.86 0 0 .65-9.38-39.85-53.88" class="cls-1"/>
  <path d="M44.47 77.57S64.4 56.35 87 35.74 68.34 59.28 68.34 59.28zM36.46.44C25 6.34 16.87 17.24 16.87 17.24L59 61.2l17.67-18.63" class="cls-2"/>
  <path d="M71.11 29.84s10.12-.65 9.14 6.22c0 0 1 10.13-7.19 13.74 0 0-10.45 4.56-10.29-5.57v-6.87" class="cls-1"/>
  <path d="M65.08 22s10.45.33 7.2 8.5c0 0 1.63 9.8-11.43 12.08 0 0-10.78-.33-6.87-10.29" class="cls-1"/>
  <path d="M52.32 9.92s15.37 1.59 14.39 7.32c0 0 0 14.56-14.39 16.84 0 0-6.54-1.31-9.15-4.24" class="cls-1"/>
  <path d="M29.79 17.28s0-12.9 20.9-15.18c0 0 10.78 14.4-8.5 20.91" class="cls-1"/>
  <path d="M24.87 30.85c9.15 12.08 16.35 8.5 16.35 8.5 11.75-8.5 0-17 0-17-8.82-11.43-17.35 0-17.35 0-10.2 11.42 5.59 21.22 5.59 21.22 4.89-.32 0 4.27 0 4.27L16.08 57s7.2 8.17 11.43 7.19l9.8-9.19" class="cls-3"/>
  <path d="M26.11 29.78l3.19 3.74c.56.56 1.14 1 1.7 1.47a10 10 0 0 0 1.75 1.36l1.92 1.14 2.06.69c.35.06.68.1 1 .13a3.7 3.7 0 0 0 1 .06c.32 0 .68 0 1-.06l.81-.2-.19.13 1.85-1.49A18.77 18.77 0 0 0 43.82 35l.62-.94.42-1a3.78 3.78 0 0 0 .27-1 3.07 3.07 0 0 0 .06-1 5.93 5.93 0 0 0-.39-2.11 8.68 8.68 0 0 0-1-2.05 15 15 0 0 0-3.19-3.49l-.13-.1-.13-.13c-.52-.61-1-1.23-1.6-1.85a12.83 12.83 0 0 0-1.82-1.5l-1-.62-1.07-.42a6.65 6.65 0 0 0-1.11-.26 3.16 3.16 0 0 0-1.1-.07 6.14 6.14 0 0 0-2.25.39 9.36 9.36 0 0 0-2.15 1A15.07 15.07 0 0 0 24.61 23l-.06.07a28.87 28.87 0 0 0-1.79 2.41l-.69 1.3c-.19.46-.29.91-.45 1.4a4.11 4.11 0 0 0-.26 1.43 5.57 5.57 0 0 0 0 1.47 10.42 10.42 0 0 0 .19 1.46l.36 1.46c1.47 3.74 4.56 6.87 7.91 9.21l-.35-.1a4.18 4.18 0 0 1 1.92.26 1.35 1.35 0 0 1 .81 1 2.44 2.44 0 0 1-.2 1.1 9.57 9.57 0 0 1-2.18 2.8l-13.51 9 .06-.49a39 39 0 0 0 5 4.76 16.79 16.79 0 0 0 2.9 1.85 7.27 7.27 0 0 0 1.59.59 4.64 4.64 0 0 0 1.66.06h-.06l9.89-9-9.7 9.28a5.62 5.62 0 0 1-1.83 0 8.08 8.08 0 0 1-1.69-.59A17.9 17.9 0 0 1 21 62a38.23 38.23 0 0 1-5.21-4.72l-.23-.28.33-.23 13.28-9.31-.06.06A8.08 8.08 0 0 0 31 45.08a1.62 1.62 0 0 0 .1-.49c-.06-.06 0-.13-.19-.19a3.23 3.23 0 0 0-1.34-.13h-.2l-.16-.1a27.14 27.14 0 0 1-5-4.17 19.12 19.12 0 0 1-3.65-5.5L20 32.87a16.44 16.44 0 0 1-.26-1.69 6.26 6.26 0 0 1 0-1.73 6.41 6.41 0 0 1 .26-1.69 12.93 12.93 0 0 1 .49-1.63l.75-1.53a32.56 32.56 0 0 1 1.92-2.77v.07a17 17 0 0 1 4.07-3.74 11.29 11.29 0 0 1 2.54-1.24 8.15 8.15 0 0 1 2.83-.56 5.58 5.58 0 0 1 1.47.07 7.72 7.72 0 0 1 1.43.29l1.37.49 1.23.72a18.76 18.76 0 0 1 2.22 1.72c.65.65 1.23 1.37 1.85 2.05l-.23-.22a17.39 17.39 0 0 1 3.85 4A11.58 11.58 0 0 1 47.11 28a8.6 8.6 0 0 1 .62 2.9 5.81 5.81 0 0 1-.07 1.5 5.31 5.31 0 0 1-.32 1.46l-.55 1.4-.79 1.26a14.61 14.61 0 0 1-1.82 2.18c-.68.62-1.4 1.2-2.12 1.79l-.06.06-.13.07a9.2 9.2 0 0 1-1.53.49c-.49.1-1 .1-1.43.16a6.46 6.46 0 0 1-1.4-.06c-.46-.07-.95-.07-1.4-.17l-2.61-.81-2.34-1.3a12.25 12.25 0 0 1-2.16-1.6c-.68-.58-1.4-1.14-2-1.72l-3.26-3.68z"/>
  <path d="M.36 66.11L11.14 55a104 104 0 0 0 21.58 21.24L.36 100.1" class="cls-2"/>
  <path d="M69.09 57.29s29 28.42 37.14 45.74" class="cls-3"/>
  <path d="M69.09 57.29s2.73 2.51 6.61 6.45c2 2 4.16 4.33 6.51 6.87s4.82 5.3 7.26 8.07 4.62 5.79 6.77 8.5c1.11 1.33 2 2.76 2.93 4.07s1.76 2.54 2.54 3.68a24.05 24.05 0 0 1 1.92 3.25c.52 1 1 1.86 1.37 2.57.75 1.44 1.2 2.25 1.2 2.25s-.49-.78-1.3-2.18l-1.5-2.51c-.59-.98-1.17-2.08-2-3.19s-1.69-2.34-2.6-3.61-1.86-2.67-3-4c-2.21-2.63-4.42-5.6-6.9-8.33s-4.75-5.63-7.1-8.21-4.49-5-6.38-7z"/>
  <path d="M85.85 90.73l11.59 6.83v-6.83l10.29 10.8-1.82-5.4 6.32 3s9.24 8.43-4.2 27.15c-.03 0-3.75-18.69-22.18-35.55z" class="cls-4"/>
  <path d="M85.85 90.73l11.69 6.7-.26.16V90.2l.39.43L108 101.37l-.49.29-1.85-5.4-.26-.72.68.33 6.35 3h.06a12.52 12.52 0 0 1 3.09 6.87 21.71 21.71 0 0 1 .1 3.78 25 25 0 0 1-.69 3.71 32.66 32.66 0 0 1-2.73 6.93c-.62 1.08-1.21 2.18-1.86 3.23l-2.08 3.09-.42.62-.17-.75a46.23 46.23 0 0 0-1.5-5c-.52-1.69-1.27-3.29-2-4.91a47.64 47.64 0 0 0-2.34-4.76 41.48 41.48 0 0 0-2.67-4.56c-1-1.46-1.83-3-2.93-4.39l-3.23-4.2a36.45 36.45 0 0 0-3.46-3.93zm0 0l3.78 3.74a37 37 0 0 1 3.65 3.87l3.35 4.14c1.14 1.37 2 2.93 3 4.39a37.65 37.65 0 0 1 2.73 4.56 49.34 49.34 0 0 1 2.41 4.76 51.1 51.1 0 0 1 2 4.94 43.36 43.36 0 0 1 1.56 5.12l-.59-.14 2-3.06c.65-1 1.21-2.11 1.83-3.19a33.58 33.58 0 0 0 2.63-6.8 30.86 30.86 0 0 0 .65-3.58 21.89 21.89 0 0 0-.06-3.62 16.08 16.08 0 0 0-.91-3.45 9.8 9.8 0 0 0-1.86-3l.1.06-6.32-3.06.46-.39 1.82 5.41.43 1.27-.92-1-10.18-10.81.39-.16v7.16l-.26-.16z" class="cls-4"/>
</svg>