<svg id="Layer_1" data-name="Layer 1" xmlns="http://www.w3.org/2000/svg" viewBox="0 0 539.77 86.95">
  <defs>
    <style>
      .cls-1 {
        fill: #8c0f0f;
      }

      .cls-2 {
        fill: #fff;
      }

      .cls-3 {
        fill: #666565;
      }
    </style>
  </defs>
  <title>31-nights-of-horror-2019-logo</title>
  <g>
    <g>
      <path class="cls-1" d="M33.66,24.67H16.74q-1.62,0-2.61.09a5.56,5.56,0,0,0-1.44.27q-1.08.27-1.08,2.25c0,.24,0,.57,0,1s.08.87.14,1.35.1,1,.13,1.44.05.87.05,1.17Q12,38,7.47,38T3.06,33v-1.4c0-.57,0-1.18.09-1.84s.1-1.19.14-1.76,0-1,0-1.3V24.58A13.16,13.16,0,0,0,3.24,23c0-.42,0-.84-.05-1.26s0-.84,0-1.26a10.36,10.36,0,0,1,.23-2.52,2.33,2.33,0,0,1,.89-1.4,4.09,4.09,0,0,1,2-.63c.87-.09,2.06-.13,3.56-.13H32.4q.81,0,2-.09c.36,0,.73,0,1.12-.05s.83,0,1.31,0q1-.09,2.34-.09h2.61q6.57,0,6.57,4.32,0,2.34-2.61,5L32,37.9q7.65.27,12.33,5A17.46,17.46,0,0,1,49.5,55.81a20.15,20.15,0,0,1-7.29,15.93v-.09a21.48,21.48,0,0,1-8,4.63,32.56,32.56,0,0,1-10.13,1.49q-10.17,0-17-5Q0,67.6,0,60a12.69,12.69,0,0,1,.72-4.28,10,10,0,0,1,2-3.46A9.86,9.86,0,0,1,5.8,50a8.66,8.66,0,0,1,3.83-.85,6.66,6.66,0,0,1,4.72,1.71,5.74,5.74,0,0,1,1.85,4.41q0,5.22-6.12,5.49.36,3.15,4.05,5.67a15.83,15.83,0,0,0,4.77,2.2,20.37,20.37,0,0,0,5.58.77,18.39,18.39,0,0,0,5.94-1,14.3,14.3,0,0,0,4.86-2.74,14.1,14.1,0,0,0,3-4.37A13.22,13.22,0,0,0,39.33,56q0-10-11.34-10a37.56,37.56,0,0,0-6.75.72c-.3.06-.57.1-.81.13a7.33,7.33,0,0,1-.9,0Q16,46.9,16,43.48a4.73,4.73,0,0,1,1.8-3.24Z"/>
      <path class="cls-1" d="M71.82,29.62A15.42,15.42,0,0,0,71.19,25,2.09,2.09,0,0,0,69.3,23.5a3.84,3.84,0,0,1-1,.13c-.58,0-1.07.08-1.49.14s-1,.1-1.44.13-.87.05-1.17.05q-4.86,0-4.86-4.23T64,15.49c.3,0,.77,0,1.4,0a14.69,14.69,0,0,1,1.93.23,1.92,1.92,0,0,1,.45,0,1.49,1.49,0,0,0,.36,0,11.33,11.33,0,0,0,1.4.09h1.12c.9,0,1.71,0,2.43,0s1.38-.07,2-.13H75q2.79-.27,3.51-.27a4.5,4.5,0,0,1,2.34.54,3.46,3.46,0,0,1,1.35,1.44,9.65,9.65,0,0,1,.45,3.06v.81a10.92,10.92,0,0,1-.09,1.35q-.18,4.41-.31,8.68t-.14,8V52.21q0,1.71.09,4c0,.72,0,1.38,0,2s0,1.14,0,1.62c.06.72.09,1.42.09,2.11v1.49q.18,4.77,2.52,4.77c.3,0,.69,0,1.17,0s1-.07,1.62-.13l1.62-.18a12.19,12.19,0,0,1,1.26-.09q5.67,0,5.67,4.23T90.9,76.24c-.54,0-1.05,0-1.53,0s-1-.07-1.44-.13q-3.6-.45-6.3-.72t-4.5-.27a64.88,64.88,0,0,0-9.18.81l-2.7.31a17.47,17.47,0,0,1-1.89.14q-5.22,0-5.22-4.32t5.76-4.23c.48,0,1,0,1.49,0a6.51,6.51,0,0,1,1.39.23,5.79,5.79,0,0,1,.72,0,5.27,5.27,0,0,0,.63,0,3.27,3.27,0,0,1,.59,0,2,2,0,0,0,.4,0,2.32,2.32,0,0,0,2.34-1.53,29.18,29.18,0,0,0,.45-4.14q.18-3,.18-7.83Z"/>
    </g>
    <g>
      <path class="cls-1" d="M353.66,56.26A17.21,17.21,0,0,0,351,58.1a12.72,12.72,0,0,0-2.11,2.3,14.49,14.49,0,0,1,6.39-1.35q5.85,0,11.7,4.77,5.76,4.59,8.64,4.59a3.54,3.54,0,0,0,2.74-1.13,5,5,0,0,0,1.22-3,4.87,4.87,0,0,1-2,.36q-5.22,0-5.22-4.86a5.21,5.21,0,0,1,1.89-4.14,7.34,7.34,0,0,1,5-1.62,8,8,0,0,1,6.21,2.56,10.1,10.1,0,0,1,2.34,7.07,14.16,14.16,0,0,1-3.69,9.9,12.05,12.05,0,0,1-9.36,4.23q-5.13,0-11.88-5.13Q356.81,68,352.4,68a5.24,5.24,0,0,0-3.69,1.17,3.16,3.16,0,0,1,2.7,3.51q0,5.13-5.76,5.13A7,7,0,0,1,339.93,75a11.66,11.66,0,0,1-2.2-7.51q0-16.11,21.87-22.86l6.21-2.07a17.34,17.34,0,0,0,6.93-4.14,8.42,8.42,0,0,0,2.52-6,9.28,9.28,0,0,0-3.38-7.61q-3.37-2.75-9.22-2.74a17.23,17.23,0,0,0-8.1,1.71,8.56,8.56,0,0,0-4.32,4.77q4.41.9,4.41,5.13a6.24,6.24,0,0,1-2,4.72,7.06,7.06,0,0,1-5.08,1.94,7.51,7.51,0,0,1-5.8-2.39,8.79,8.79,0,0,1-2.21-6.25q0-7.47,7-12.78,6.66-5,16.65-4.95,9.63,0,15.93,5a16.61,16.61,0,0,1,6.39,13.32,16.23,16.23,0,0,1-3.06,9.85,19.4,19.4,0,0,1-8.55,6.44H374c-.48.18-1.61.57-3.38,1.17l-7.15,2.43h.09c-2,.66-3.82,1.35-5.54,2.07S354.86,55.66,353.66,56.26Z"/>
      <path class="cls-1" d="M419.72,77.77q-11.88,0-18.54-8.46-6.48-8.37-6.48-23,0-14.94,6.84-23.49,6.93-8.82,19-8.82,11.61,0,18.18,8.46a26.78,26.78,0,0,1,5,9.72,45.19,45.19,0,0,1,1.62,12.6q0,15.3-6.84,24.12T419.72,77.77Zm.63-55q-14.4,0-15,22.5v1.35q0,10.8,3.78,16.6a12.76,12.76,0,0,0,17,4.14,14.48,14.48,0,0,0,4.77-4.77,24.14,24.14,0,0,0,3-7.56,44.86,44.86,0,0,0,1-10.12q0-10.8-3.78-16.47A12.21,12.21,0,0,0,420.35,22.78Z"/>
      <path class="cls-1" d="M464.36,29.62a15.42,15.42,0,0,0-.63-4.59,2.09,2.09,0,0,0-1.89-1.53,3.87,3.87,0,0,1-1,.13c-.57,0-1.06.08-1.48.14s-1,.1-1.44.13-.87.05-1.17.05q-4.86,0-4.86-4.23t4.68-4.23c.3,0,.76,0,1.39,0a14.83,14.83,0,0,1,1.94.23,1.92,1.92,0,0,1,.45,0,1.49,1.49,0,0,0,.36,0,11.17,11.17,0,0,0,1.39.09h1.13c.9,0,1.71,0,2.43,0s1.38-.07,2-.13h-.09q2.79-.27,3.51-.27a4.5,4.5,0,0,1,2.34.54,3.46,3.46,0,0,1,1.35,1.44,9.65,9.65,0,0,1,.45,3.06v.81a10.92,10.92,0,0,1-.09,1.35q-.18,4.41-.32,8.68t-.13,8V52.21q0,1.71.09,4c0,.72,0,1.38,0,2s.05,1.14.05,1.62c.06.72.09,1.42.09,2.11v1.49q.18,4.77,2.52,4.77c.3,0,.69,0,1.17,0s1-.07,1.62-.13l1.62-.18a12.19,12.19,0,0,1,1.26-.09q5.67,0,5.67,4.23t-5.31,4.23c-.54,0-1.05,0-1.53,0s-1-.07-1.44-.13q-3.6-.45-6.3-.72t-4.5-.27a64.88,64.88,0,0,0-9.18.81l-2.7.31a17.47,17.47,0,0,1-1.89.14q-5.22,0-5.22-4.32t5.76-4.23c.48,0,1,0,1.48,0a6.5,6.5,0,0,1,1.4.23,5.79,5.79,0,0,1,.72,0,5.27,5.27,0,0,0,.63,0,3.09,3.09,0,0,1,.58,0,2.17,2.17,0,0,0,.41,0A2.32,2.32,0,0,0,464,66.7a29.18,29.18,0,0,0,.45-4.14q.18-3,.18-7.83Z"/>
    </g>
    <g>
      <path class="cls-2" d="M118.22,33.58h-3.91V1h3.83l11.53,21.69,1.25,3.23h.1l-.1-3.23V1h3.91V33.58h-3.91l-11.2-21.34-1.58-3.41.08,3.37Z"/>
      <path class="cls-2" d="M141.07,33.58V30.33h7.17v-26h-7.17V1h18.58V4.28h-7.17V30.33h7.17v3.25Z"/>
      <path class="cls-2" d="M186.12,33.56a22.87,22.87,0,0,1-6.33,1,12.73,12.73,0,0,1-12.24-8.09,22.49,22.49,0,0,1-1.8-9.19,22.4,22.4,0,0,1,1.76-9.09,13.37,13.37,0,0,1,5-6.11A12.74,12.74,0,0,1,179.55,0a19.07,19.07,0,0,1,6.55,1.37V5.24a13.3,13.3,0,0,0-6.74-2A7,7,0,0,0,174.76,5a11.78,11.78,0,0,0-3.36,5.05,20.14,20.14,0,0,0-1.27,7.26A19.52,19.52,0,0,0,172.54,27a8.12,8.12,0,0,0,7.62,4.34c.45,0,1,0,1.7-.1V20.7h-3.23V17.45h7.49Z"/>
      <path class="cls-2" d="M191.71,33.58V1H196V15H208V1h4.22V33.58H208V18.26H196V33.58Z"/>
      <path class="cls-2" d="M225.64,33.58v-29h-9.77V1h23.8V4.59h-9.79v29Z"/>
      <path class="cls-2" d="M244,32.88v-4a21.58,21.58,0,0,0,9.16,2.4,8.44,8.44,0,0,0,3.29-.66,5.08,5.08,0,0,0,2.39-1.89,4.82,4.82,0,0,0,.81-2.69,5.17,5.17,0,0,0-1.12-3.19,14.17,14.17,0,0,0-4.16-3.26l-2.15-1.23L250,17.12q-5.7-3.38-5.71-8.4a8.35,8.35,0,0,1,2.56-6.19c1.71-1.67,4.36-2.51,8-2.51a22.36,22.36,0,0,1,6.73,1V4.67a19.11,19.11,0,0,0-7-1.39,6.49,6.49,0,0,0-4.38,1.43,4.38,4.38,0,0,0-1.68,3.44,4.57,4.57,0,0,0,1.29,3.33,13.89,13.89,0,0,0,3.28,2.42l1.63,1,2,1.25,1.74,1q5.34,3.27,5.35,8.23a8.75,8.75,0,0,1-2.76,6.49q-2.74,2.7-8.81,2.7a20.94,20.94,0,0,1-3.69-.32A31,31,0,0,1,244,32.88Z"/>
      <path class="cls-2" d="M115.36,85.58V40.12h5.91V59.69H138.1V40.12H144V85.58H138.1V64.21H121.27V85.58Z"/>
      <path class="cls-2" d="M165.67,87a13.14,13.14,0,0,1-11.83-6.51q-4.08-6.51-4.08-17.6t4.08-17.56a14,14,0,0,1,23.64,0q4.08,6.53,4.08,17.56t-4.08,17.6A13.1,13.1,0,0,1,165.67,87Zm0-4.57q4.26,0,7.11-4.84t2.86-14.7q0-9.83-2.86-14.69c-1.9-3.24-4.27-4.85-7.11-4.85s-5.24,1.61-7.14,4.85-2.86,8.14-2.86,14.69,1,11.47,2.86,14.7S162.81,82.38,165.67,82.38Z"/>
      <path class="cls-2" d="M194,66.27V85.58H188V40.12h12.14c4,0,6.88.41,8.76,1.22A9.38,9.38,0,0,1,213.3,45a9.75,9.75,0,0,1,1.54,5.28,14.53,14.53,0,0,1-1,5.32A16.19,16.19,0,0,1,211,60.37a18.58,18.58,0,0,1-5.2,4L219,85.58h-7l-12-19.31Zm0-4.58h8.29a14.56,14.56,0,0,0,4.16-3.09,11.82,11.82,0,0,0,2-3.38,9.59,9.59,0,0,0,.7-3.55,6.21,6.21,0,0,0-2.32-5.09c-1.56-1.26-4.37-1.88-8.45-1.88H194Z"/>
      <path class="cls-2" d="M230,66.27V85.58H224V40.12h12.14q5.94,0,8.76,1.22A9.38,9.38,0,0,1,249.3,45a9.75,9.75,0,0,1,1.54,5.28,14.53,14.53,0,0,1-1,5.32A16.41,16.41,0,0,1,247,60.37a18.58,18.58,0,0,1-5.2,4L255,85.58H247.9l-12-19.31Zm0-4.58h8.28a14.56,14.56,0,0,0,4.16-3.09,12.09,12.09,0,0,0,2.06-3.38,9.78,9.78,0,0,0,.69-3.55,6.21,6.21,0,0,0-2.32-5.09c-1.56-1.26-4.37-1.88-8.45-1.88H230Z"/>
      <path class="cls-2" d="M273.67,87a13.14,13.14,0,0,1-11.83-6.51q-4.08-6.51-4.09-17.6t4.09-17.56a14,14,0,0,1,23.64,0q4.08,6.53,4.07,17.56t-4.07,17.6A13.1,13.1,0,0,1,273.67,87Zm0-4.57q4.26,0,7.11-4.84t2.86-14.7q0-9.83-2.86-14.69c-1.9-3.24-4.27-4.85-7.11-4.85s-5.24,1.61-7.14,4.85-2.86,8.14-2.86,14.69.95,11.47,2.86,14.7S270.81,82.38,273.67,82.38Z"/>
      <path class="cls-2" d="M302,66.27V85.58H296V40.12h12.14q5.94,0,8.76,1.22A9.43,9.43,0,0,1,321.3,45a9.83,9.83,0,0,1,1.54,5.28,14.53,14.53,0,0,1-1,5.32A16.41,16.41,0,0,1,319,60.37a18.58,18.58,0,0,1-5.2,4L327,85.58H319.9l-12-19.31Zm0-4.58h8.29a14.71,14.71,0,0,0,4.16-3.09,11.82,11.82,0,0,0,2.05-3.38,9.59,9.59,0,0,0,.7-3.55,6.19,6.19,0,0,0-2.33-5.09c-1.55-1.26-4.36-1.88-8.44-1.88H302Z"/>
    </g>
    <g>
      <path class="cls-3" d="M289.67,31.69a7.65,7.65,0,0,1-6.9-3.8q-2.38-3.8-2.38-10.26t2.38-10.25a8.16,8.16,0,0,1,13.79,0q2.38,3.81,2.38,10.25t-2.38,10.26A7.63,7.63,0,0,1,289.67,31.69Zm0-2.66c1.66,0,3-1,4.15-2.83s1.67-4.74,1.67-8.57-.56-6.68-1.67-8.57-2.49-2.83-4.15-2.83-3.06.94-4.17,2.83-1.66,4.74-1.66,8.57.55,6.69,1.66,8.57S288,29,289.67,29Z"/>
      <path class="cls-3" d="M304.05,30.89V4.38h14.57V7H307.5v9h10.07v2.65H307.5v12.2Z"/>
    </g>
  </g>
  <path class="cls-1" d="M513,68.21a13.5,13.5,0,0,0,10.66-4.82q4.18-4.81,5.36-13.27-5.22,5.22-15.3,5.22-9.81,0-15.66-5.76a19.91,19.91,0,0,1-6-14.94,21.21,21.21,0,0,1,6.57-15.84q6.48-6.39,16.65-6.39,11.61,0,18,8t6.48,21.51q0,15.93-7.2,25-7.11,9.27-20,9.27-8.28,0-13.77-3.78-5.94-4-5.94-10a6.74,6.74,0,0,1,2-5,6.88,6.88,0,0,1,5-2A6.37,6.37,0,0,1,504.17,57,4.87,4.87,0,0,1,506,60.83a4.8,4.8,0,0,1-2.07,4,8.49,8.49,0,0,0,3.55,2.43A15.2,15.2,0,0,0,513,68.21ZM515.47,21a12.59,12.59,0,0,0-9.5,3.69,13.42,13.42,0,0,0-3.55,9.72,11.7,11.7,0,0,0,12.51,12.51q6,0,9.49-3.38t3.47-9.22q0-6.12-3.42-9.72A11.84,11.84,0,0,0,515.47,21Z"/>
</svg>
